<?xml version="1.0" encoding="utf-8"?>
<!-- Generator: Adobe Illustrator 27.0.0, SVG Export Plug-In . SVG Version: 6.00 Build 0)  -->
<svg version="1.1" id="Layer_1" xmlns="http://www.w3.org/2000/svg" xmlns:xlink="http://www.w3.org/1999/xlink" x="0px" y="0px"
	 viewBox="0 0 139.7 139.7" style="enable-background:new 0 0 139.7 139.7;" xml:space="preserve">
<style type="text/css">
	.st0{opacity:0.25;enable-background:new    ;}
	.st1{opacity:0.5;enable-background:new    ;}
</style>
<path class="st0" d="M85.9,29.8C78.5,30.6,71.8,34,71.1,40c-0.2,2-1.5,10.8-3.6,11.6c-10.6,3.8-19.8,20-19.9,26.8
	c-2,15.3-3.6,20.9,1.2,31L68.9,79c2.2-5.6,5.3-10.6,7-16.5c0.5-1.9,1-4.5,1.9-5.8c0.9-1.5,2.4-2.5,4.2-4.5c1.2-1.3,3-4.2,4.5-6.6
	c2.9-4.9,3.9-7.1,5.6-10.3C92.3,33.4,90.2,29.3,85.9,29.8z M60,72.6c-1,1.7-2.9,5.1-3.9,6.7c-0.5,0.9-0.9,2.2-1.2,3.2
	c-0.3-1.2-0.3-3,0.6-4.6l0,0c0.7-0.9,2-2.7,3-3.9c2.1-2.9,8.2-12,9.5-12.8C66.8,62.4,61.9,69.5,60,72.6z"/>
<path d="M56.3,75c-3.1,3.4-3.5,10-2.4,14.3C57.7,76,66,65.7,72.3,57.1C66.5,59.4,61.1,69.5,56.3,75z M60,72.6
	c-1,1.7-2.9,5.1-3.9,6.7c-0.5,0.9-0.9,2.2-1.2,3.2c-0.3-1.2-0.3-3,0.6-4.6l0,0c0.7-0.9,2-2.7,3-3.9c2.1-2.9,8.2-12,9.5-12.8
	C66.8,62.4,61.9,69.5,60,72.6z"/>
<path d="M72.3,57.1L72.3,57.1L72.3,57.1z"/>
<path id="path4677" d="M81.9,35c0.1,0.9,0,1.1,0.3,1.4c1.2,0.1,3-0.8,4.2-1.2c-0.6,0.9-2.1,2.1-3.5,3.3c-0.2,0.5-0.1,0.8-0.1,1.2
	c-1-0.1-2.1,0.3-2.6,0.6c0.4,0.3,1.7,3.5,1.2,5.2c-0.4-0.4-1.7-3.9-2.7-4.2c-0.6,1.5-0.4,5-1.2,6.8c-1-1-1-3.9-0.4-5.5
	c-1.2,0.4-2.2,1.2-3.4,1.2c1.2-1.5,2.6-2.3,3.9-3.5c0-0.5-0.3-0.6-0.9-0.9c1.2-0.4,2.4-1,2.3-2.7c0.4,0.3,0.8,0.6,1.2,0.7
	C81.1,36.6,81.6,35.6,81.9,35L81.9,35z"/>
<path d="M86.7,29.2C80.6,29.4,76.1,30.6,73,34c-2.2,2.6-3.1,6-3.6,9.9c-0.9,6.4-0.9,6.2-5.5,8.9c-4.3,2.6-8.2,7.1-11.2,10.7
	c-6.5,7.8-11.9,33-4.9,46.9l0,0l2.1-2.3c-6.8-7.7-2.1-28.1,0.3-35.2c2.2-6.6,7.9-13.3,13.7-17.6c6.8-5,6-3.8,7.2-9.7
	c0.7-3.7,1.5-8,3.6-10.2c2.7-2.9,6.8-5,12.1-4.9L86.7,29.2z"/>
<path id="path3177" d="M77.6,56.5c4.2-2,11.4-11.3,14.4-21.2c-1.2,1.5-2.9,3.9-4.4,7C84.5,48.7,78.7,54.9,77.6,56.5z"/>
<path d="M54.5,97.2c-7.9,9.6-6.3,12.7-5.7,12.3c1.8-1.8,4.5-6.6,8.1-11.2c8.9-11.5,18.7-28.7,20.3-40.4
	C71.5,75.6,60.1,90.2,54.5,97.2z"/>
<path id="path4334_00000171706154884340887790000012676028719422921878_" class="st1" d="M55.6,77.9c-0.9,1.6-0.9,3.5-0.6,4.6
	c0.3-1,0.6-2.2,1.2-3.2c0.9-1.6,2.7-5,3.9-6.7c2-3.1,6.8-10.2,8.2-11.5c-1.4,0.8-7.5,9.9-9.5,12.8C57.6,75.2,56.3,77,55.6,77.9
	L55.6,77.9z"/>
</svg>
